<svg xmlns="http://www.w3.org/2000/svg" viewBox="0 0 3143 1505" role="img" aria-label="Pinnacle Fitness">
<g transform="translate(0.000000,1505.000000) scale(0.100000,-0.100000)" fill="#000000" stroke="none"> <path d="M14039 14628 c-18 -33 -46 -138 -69 -258 -11 -58 -25 -121 -30 -140 -5 -19 -21 -80 -34 -135 -13 -55 -29 -112 -34 -126 -6 -14 -20 -82 -31 -152 -12 -69 -35 -179 -52 -244 -17 -65 -37 -147 -45 -183 -7 -36 -21 -90 -29 -120 -9 -30 -27 -113 -41 -184 -38 -201 -62 -298 -79 -334 -9 -17 -17 -53 -18 -78 -2 -52 8 -64 148 -159 44 -30 89 -61 100 -68 79 -54 183 -117 193 -117 6 0 35 -11 64 -24 120 -54 183 -78 236 -87 32 -6 82 -20 112 -32 55 -22 56 -22 860 -23 l805 -1 95 -26 c116 -32 246 -86 304 -127 24 -16 56 -51 72 -77 24 -41 29 -64 36 -158 10 -138 12 -2215 3 -2247 -10 -30 -135 -165 -421 -453 -126 -127 -276 -282 -334 -345 -58 -63 -141 -150 -186 -195 -44 -44 -154 -159 -243 -255 -90 -96 -182 -193 -206 -215 -24 -22 -52 -56 -64 -75 -11 -19 -84 -99 -161 -176 -77 -78 -174 -180 -216 -225 -81 -88 -402 -424 -640 -669 -78 -80 -210 -218 -294 -308 -205 -220 -217 -205 168 -212 160 -3 294 -9 298 -13 5 -4 1 -30 -9 -56 -16 -45 -17 -122 -17 -914 0 -476 3 -872 6 -881 12 -31 46 -16 107 47 253 260 642 669 782 822 70 77 163 176 206 220 163 165 377 402 404 445 15 25 37 54 49 66 12 11 57 60 101 109 44 49 131 143 194 209 62 67 144 157 181 201 37 44 113 127 169 185 56 58 120 127 144 154 23 27 64 71 90 98 27 26 62 65 79 85 16 21 49 58 72 83 38 40 78 86 232 268 25 28 53 52 63 52 25 0 91 -64 91 -88 0 -11 -29 -62 -65 -114 -107 -155 -310 -461 -323 -488 -7 -14 -26 -47 -43 -74 -31 -51 -36 -96 -10 -104 9 -3 123 105 300 285 158 160 296 293 308 297 13 4 34 1 51 -8 15 -8 152 -137 304 -288 152 -150 416 -410 588 -578 171 -168 325 -325 342 -350 17 -24 76 -87 132 -140 55 -52 177 -169 271 -260 157 -152 255 -239 255 -226 0 35 -73 138 -179 251 -46 50 -118 133 -160 185 -42 52 -90 110 -108 128 -18 18 -41 48 -50 66 -10 19 -73 92 -139 163 -177 187 -262 280 -315 348 -26 33 -72 83 -101 111 -71 69 -251 262 -326 350 -33 39 -79 86 -102 104 -24 19 -50 46 -60 62 -9 15 -173 187 -365 381 -191 195 -354 367 -363 383 -8 16 -46 63 -85 104 -38 41 -77 86 -86 100 -14 21 -16 90 -19 590 -3 624 -3 623 52 587 14 -10 281 -271 594 -581 312 -310 579 -574 594 -586 15 -11 82 -83 149 -158 67 -75 267 -280 443 -454 177 -175 456 -451 621 -615 485 -481 706 -694 732 -706 36 -16 43 2 43 120 l0 101 -69 89 c-37 48 -93 108 -125 133 -31 25 -56 48 -56 52 0 3 -84 92 -187 196 -562 568 -997 1012 -1012 1035 -34 52 -1019 1047 -1531 1547 l-165 161 -6 352 c-3 194 -7 1110 -7 2037 -1 927 -5 1740 -9 1808 -8 156 -10 160 -118 171 -86 9 -240 62 -307 107 -56 36 -129 60 -258 83 -185 33 -386 45 -540 32 -167 -14 -429 -14 -540 0 -47 5 -125 14 -175 19 -94 9 -267 46 -370 80 -33 11 -85 24 -115 30 -30 6 -66 18 -80 28 -31 23 -85 52 -173 92 -37 17 -97 51 -132 76 -73 49 -99 54 -116 22z m2784 -3048 c-1 -580 -5 -1080 -9 -1110 -6 -53 -7 -54 -16 -25 -13 38 -16 2121 -4 2190 8 48 9 49 20 25 8 -18 10 -311 9 -1080z m-93 -3461 c0 -6 -14 -25 -32 -42 -40 -41 -52 -18 -12 24 29 30 44 37 44 18z m218 -326 c3 -39 1 -42 -109 -147 -102 -97 -149 -129 -166 -112 -10 10 16 57 41 77 13 11 35 38 49 61 31 52 153 171 170 165 7 -2 13 -22 15 -44z m-935 -640 c-4 -9 -22 -30 -40 -46 -19 -17 -41 -44 -50 -61 -9 -17 -60 -73 -113 -126 -54 -52 -105 -109 -115 -126 -19 -34 -51 -58 -65 -49 -18 11 -10 28 31 67 22 21 70 73 105 116 36 42 102 114 147 160 78 78 114 102 100 65z m17 -377 c0 -8 -19 -32 -43 -53 -24 -21 -57 -58 -74 -83 -40 -58 -146 -160 -201 -194 l-42 -26 35 47 c68 95 111 143 193 214 46 40 87 81 93 91 11 21 39 24 39 4z m-610 -375 c0 -24 -77 -118 -187 -229 -46 -45 -83 -87 -83 -92 0 -9 -118 -148 -175 -208 -79 -82 -200 -192 -211 -192 -25 0 -15 22 32 69 25 25 53 59 61 76 9 16 57 74 107 128 50 54 99 113 108 130 17 33 264 289 308 319 32 23 40 22 40 -1z"/> <path d="M16975 6549 c-11 -6 -32 -25 -46 -44 -14 -18 -44 -49 -68 -69 -23 -19 -58 -54 -77 -77 -19 -23 -50 -54 -68 -68 -18 -15 -59 -57 -90 -94 -32 -37 -66 -72 -77 -77 -11 -6 -32 -31 -47 -55 -15 -24 -155 -175 -312 -337 -337 -346 -387 -398 -562 -583 -239 -253 -441 -465 -558 -587 -63 -66 -118 -126 -123 -133 -4 -8 -59 -65 -123 -127 -64 -62 -123 -126 -131 -142 -17 -33 -785 -806 -800 -806 -38 0 -38 -16 -35 1404 2 1119 0 1376 -10 1396 l-14 25 -438 3 c-403 2 -441 1 -458 -15 -18 -16 -19 -33 -18 -218 1 -110 1 -576 1 -1036 -1 -918 1 -886 -57 -856 -17 9 -46 34 -65 55 -19 22 -43 50 -54 63 -12 13 -68 69 -125 123 -58 55 -163 155 -235 224 -166 160 -201 193 -425 402 -102 95 -246 232 -320 304 -74 72 -198 190 -275 263 -386 363 -532 502 -569 542 -23 25 -64 69 -92 98 l-51 53 -405 0 c-374 0 -408 -1 -428 -18 l-22 -17 -2 -1790 -2 -1790 23 -23 23 -23 431 3 c413 3 431 4 445 22 12 17 14 187 14 1127 0 900 2 1108 13 1112 16 6 77 -19 77 -32 0 -5 53 -58 118 -116 253 -231 491 -463 508 -496 7 -15 28 -39 46 -54 52 -43 231 -209 367 -341 70 -67 149 -141 176 -165 59 -52 165 -148 255 -234 182 -172 520 -486 555 -516 22 -18 69 -61 105 -95 85 -81 198 -177 230 -195 21 -12 139 -15 667 -17 413 -2 656 1 680 7 43 12 56 23 393 354 l233 228 111 53 c221 107 282 134 346 155 36 11 87 37 115 56 27 20 73 42 101 51 50 14 147 54 277 113 38 17 75 31 82 31 44 0 12 -68 -74 -159 -58 -61 -80 -96 -67 -109 9 -9 88 32 127 66 19 15 68 51 109 78 41 27 103 71 136 99 34 27 81 66 105 85 44 35 188 140 323 235 39 28 116 84 171 125 55 41 111 82 125 91 14 9 37 29 50 44 51 55 65 66 100 76 29 9 43 7 84 -11 27 -11 67 -37 89 -56 21 -20 56 -43 76 -51 118 -48 274 -122 323 -154 31 -20 85 -46 120 -59 35 -13 77 -34 93 -46 17 -12 95 -54 175 -94 180 -89 248 -124 425 -221 77 -41 152 -79 166 -82 15 -4 48 -22 75 -41 27 -19 90 -55 139 -80 50 -25 162 -87 250 -137 88 -50 207 -116 265 -147 58 -30 123 -66 145 -79 22 -13 62 -36 88 -51 27 -15 78 -46 115 -69 37 -23 130 -74 207 -114 77 -39 145 -75 151 -80 30 -24 158 -61 300 -85 l159 -27 1035 -1 c808 -1 1051 2 1110 12 41 7 109 17 150 22 104 12 199 37 246 66 21 13 59 33 84 45 112 54 221 145 317 264 47 58 108 175 118 225 4 19 16 55 27 80 11 25 31 89 44 143 20 83 24 123 24 258 0 146 -2 161 -20 179 -19 19 -34 20 -302 20 -156 0 -326 5 -378 10 -102 10 -162 2 -189 -24 -10 -11 -18 -44 -22 -102 -9 -112 -47 -178 -140 -244 l-64 -45 -830 0 -830 0 -67 38 c-73 41 -90 61 -134 157 l-29 65 0 675 0 675 37 75 c44 91 63 110 153 152 l70 33 785 0 786 0 79 -40 c67 -34 87 -50 126 -102 l46 -62 6 -107 c4 -88 8 -110 23 -121 25 -19 827 -19 864 0 25 12 25 15 28 152 2 78 -2 166 -8 200 -17 87 -97 321 -132 385 -34 62 -119 171 -170 217 -18 16 -55 50 -83 75 -53 48 -338 198 -410 217 -22 5 -89 17 -150 26 -96 14 -227 16 -1065 12 -957 -3 -1073 -7 -1170 -40 -19 -7 -104 -48 -188 -91 -234 -121 -366 -249 -462 -445 -21 -42 -41 -101 -45 -131 -4 -30 -18 -82 -32 -115 -24 -58 -25 -70 -29 -320 -2 -143 -5 -425 -7 -627 -1 -265 -5 -370 -14 -379 -6 -6 -22 -9 -35 -5 -22 6 -113 89 -189 172 -20 21 -51 52 -70 68 -19 17 -65 57 -104 90 -38 33 -108 95 -155 137 -47 41 -116 102 -155 134 -38 31 -86 74 -106 94 -55 55 -177 163 -245 218 -79 63 -165 140 -337 300 -78 72 -160 145 -182 161 -22 16 -63 51 -91 78 -28 27 -77 70 -110 96 -33 25 -98 83 -144 128 -47 45 -101 93 -120 108 -19 15 -85 72 -146 128 -61 56 -121 110 -133 120 -13 10 -33 33 -44 50 -25 35 -134 137 -297 277 -63 55 -140 123 -172 153 -56 54 -76 61 -113 43z m281 -1436 c38 -31 101 -86 140 -122 39 -36 116 -104 170 -151 54 -47 109 -97 124 -111 14 -14 57 -51 95 -81 74 -59 172 -143 270 -233 33 -30 83 -74 110 -96 62 -51 170 -156 210 -204 17 -19 59 -58 95 -85 36 -26 81 -65 100 -85 19 -20 60 -56 91 -80 60 -47 135 -132 125 -143 -4 -3 -20 2 -35 11 -16 9 -38 17 -48 17 -16 0 -125 50 -173 80 -27 16 -322 161 -435 212 -60 28 -136 70 -168 95 -32 24 -71 49 -85 54 -15 6 -103 48 -197 94 -93 46 -181 86 -195 90 -14 4 -46 20 -73 36 -60 37 -99 37 -146 1 -20 -16 -79 -50 -131 -76 -52 -27 -118 -63 -146 -81 -28 -18 -71 -42 -96 -53 -25 -11 -63 -37 -85 -58 -25 -25 -101 -71 -216 -129 -302 -154 -351 -179 -393 -207 -22 -14 -95 -51 -162 -82 -67 -30 -152 -71 -188 -91 -37 -20 -96 -47 -131 -60 -35 -14 -74 -31 -86 -40 -23 -16 -57 -20 -57 -6 0 4 133 138 296 297 162 159 301 300 309 314 12 23 338 357 819 840 104 105 197 190 206 190 9 0 47 -25 86 -57z"/> <path d="M448 6178 c-20 -7 -30 -20 -38 -49 -11 -41 -12 -3014 -1 -3387 6 -176 8 -195 25 -208 16 -11 90 -14 417 -14 l398 0 15 22 c14 20 16 98 16 649 0 594 1 627 18 642 17 16 96 17 930 17 1111 0 1136 2 1347 108 126 62 228 136 272 194 21 28 49 65 63 83 60 79 117 162 124 180 5 11 30 83 58 160 l50 140 5 200 c6 229 -6 370 -36 421 -11 18 -23 50 -27 71 -13 75 -69 200 -127 286 -67 98 -214 240 -287 277 -25 13 -58 33 -75 46 -81 61 -188 103 -330 130 -77 14 -183 30 -235 35 -138 12 -2548 10 -2582 -3z m2536 -827 c127 -24 170 -57 227 -171 31 -61 33 -72 33 -170 1 -135 -18 -195 -84 -261 -26 -26 -67 -58 -91 -71 l-44 -23 -825 -5 c-454 -3 -842 -3 -863 -1 -30 2 -40 9 -48 28 -5 13 -9 168 -9 343 0 278 2 321 16 334 14 15 96 16 817 13 611 -2 818 -6 871 -16z"/> <path d="M4367 6175 c-15 -9 -32 -26 -36 -38 -5 -12 -9 -821 -10 -1798 l-2 -1775 22 -20 c20 -18 44 -19 418 -24 350 -5 399 -4 426 10 l30 16 3 1785 c1 981 0 1794 -3 1806 -10 44 -29 46 -435 50 -337 3 -389 1 -413 -12z"/> <path d="M5784 6182 c-108 -2 -123 -5 -140 -23 -18 -20 -19 -73 -19 -1798 0 -977 4 -1788 8 -1802 4 -16 16 -29 29 -32 13 -3 204 -7 425 -8 362 -2 404 -1 427 15 l26 16 0 1088 c0 604 4 1093 9 1101 7 12 12 11 30 -1 54 -38 547 -521 577 -566 20 -29 617 -624 981 -978 56 -54 225 -221 375 -369 151 -149 290 -279 310 -288 31 -15 72 -17 305 -17 147 0 274 4 281 8 7 5 16 22 21 38 4 16 7 826 6 1799 -1 1372 -4 1775 -13 1793 l-13 22 -387 1 c-454 2 -462 2 -484 -19 -17 -14 -18 -74 -18 -992 0 -538 -3 -992 -6 -1009 -4 -17 -12 -31 -19 -31 -6 0 -388 375 -848 833 -460 457 -893 887 -962 955 -69 68 -136 140 -149 161 -27 43 -109 101 -140 101 -12 0 -127 1 -256 2 -129 2 -290 2 -356 0z"/> <path d="M24137 6132 c-16 -17 -17 -154 -15 -1808 l3 -1789 27 -13 c22 -10 322 -12 1525 -12 1413 0 1498 1 1515 18 16 16 17 52 19 435 1 386 0 419 -16 437 -17 19 -43 20 -1081 22 -856 2 -1066 6 -1076 16 -10 10 -14 272 -18 1353 -4 1176 -7 1341 -20 1349 -9 6 -186 10 -431 10 -391 0 -417 -1 -432 -18z"/> <path d="M27496 6128 c-14 -20 -16 -206 -16 -1788 0 -971 3 -1775 6 -1788 4 -12 18 -28 33 -35 21 -10 377 -13 1737 -12 1585 1 1714 2 1737 18 16 10 28 30 32 49 4 27 2 369 -4 750 -1 64 -2 68 -31 83 -25 13 -178 15 -1283 15 -961 0 -1256 3 -1265 12 -19 19 -17 511 2 527 11 10 289 12 1169 12 1154 -1 1199 0 1219 32 4 7 8 174 8 373 0 337 -1 362 -18 377 -17 16 -113 17 -1173 17 -635 0 -1164 3 -1176 6 -12 3 -26 18 -32 32 -6 15 -11 131 -13 265 l-3 239 24 19 c23 18 57 19 1276 19 1200 0 1253 1 1268 18 15 17 17 58 17 385 l0 366 -22 15 c-20 14 -203 16 -1750 16 l-1727 0 -15 -22z"/> <path d="M18880 1870 c-21 -13 -26 -260 -20 -917 4 -409 8 -525 18 -535 19 -19 367 -24 402 -5 l25 13 5 226 c4 167 8 230 18 240 10 10 123 14 518 18 486 5 506 6 520 24 10 15 14 52 14 138 0 113 -1 120 -25 143 l-24 25 -486 0 -486 0 -24 25 c-23 22 -25 32 -25 120 0 89 2 98 25 121 l25 25 521 -1 c468 -2 523 0 538 15 13 13 16 40 16 158 0 78 -3 150 -7 160 -7 16 -53 17 -770 17 -462 0 -769 -4 -778 -10z"/> <path d="M20740 1870 c-13 -8 -15 -100 -15 -725 0 -698 1 -717 19 -731 27 -19 393 -21 419 -1 17 11 18 61 17 732 0 558 -3 721 -13 727 -17 11 -409 10 -427 -2z"/> <path d="M21406 1858 c-13 -18 -16 -51 -16 -153 0 -190 -24 -175 281 -175 195 0 257 -3 284 -14 l34 -15 3 -531 3 -532 24 -19 c23 -19 38 -20 206 -17 136 2 186 6 198 17 15 12 17 63 17 540 0 289 4 531 8 538 17 26 68 31 315 30 194 -1 260 2 269 11 9 9 14 59 16 161 3 127 1 151 -13 165 -15 15 -88 16 -815 16 l-799 0 -15 -22z"/> <path d="M23340 1860 c-20 -20 -20 -33 -20 -711 0 -692 1 -719 34 -741 6 -4 95 -8 197 -8 144 0 189 3 205 14 18 14 19 34 24 460 4 333 8 448 17 457 10 10 33 -8 110 -87 124 -126 267 -277 317 -334 21 -25 90 -101 152 -170 63 -69 151 -166 197 -217 45 -50 97 -99 115 -108 28 -14 62 -16 222 -13 138 2 193 7 202 16 10 10 13 154 13 723 0 692 -1 711 -19 725 -15 11 -60 14 -201 14 -164 0 -184 -2 -198 -18 -15 -17 -17 -62 -17 -436 0 -350 -2 -417 -14 -422 -15 -6 -65 43 -263 253 -56 59 -147 156 -204 215 -56 60 -111 121 -123 137 -12 16 -73 83 -137 150 l-116 121 -236 0 c-224 0 -238 -1 -257 -20z"/> <path d="M25436 1858 c-14 -20 -16 -105 -16 -718 0 -585 2 -699 14 -716 14 -18 35 -19 774 -21 750 -2 761 -2 786 18 26 20 26 22 26 154 0 130 -1 134 -25 153 -23 19 -46 19 -557 21 -624 1 -571 -10 -572 115 -1 121 -49 111 533 111 407 0 501 2 514 14 14 11 17 36 17 156 l0 142 -25 11 c-19 9 -163 12 -505 12 -338 0 -486 3 -504 11 -30 14 -42 72 -32 144 12 79 -19 75 588 75 l537 0 15 22 c13 18 16 51 16 150 0 115 -2 130 -20 148 -20 20 -33 20 -784 20 l-765 0 -15 -22z"/> <path d="M27640 1872 c-14 -4 -38 -14 -55 -23 -16 -10 -49 -22 -72 -28 -47 -13 -148 -99 -184 -158 -26 -42 -49 -155 -49 -243 0 -134 46 -245 130 -317 22 -19 80 -46 152 -71 146 -51 219 -59 650 -66 174 -3 328 -10 342 -16 34 -12 60 -55 60 -97 0 -54 -45 -92 -125 -103 -78 -12 -595 -12 -663 -1 -50 9 -66 21 -132 108 l-22 28 -158 3 c-209 3 -209 3 -209 -103 1 -91 19 -138 82 -217 46 -56 80 -76 209 -125 l99 -37 478 -3 477 -4 90 41 c50 22 94 40 98 40 15 0 120 100 142 134 34 57 70 175 70 235 0 173 -111 346 -255 395 -148 51 -185 56 -525 61 -505 9 -570 23 -570 125 0 45 15 67 63 92 41 23 48 23 390 23 l349 0 29 -35 c16 -19 42 -50 58 -67 l28 -33 160 0 c189 0 193 2 193 91 0 179 -44 251 -200 327 l-95 47 -505 2 c-278 0 -516 -2 -530 -5z"/> <path d="M29575 1870 c-58 -15 -181 -78 -222 -115 -52 -45 -107 -126 -122 -180 -13 -48 -14 -225 -2 -278 14 -60 71 -146 128 -192 40 -33 78 -51 164 -79 136 -44 223 -53 634 -61 160 -3 304 -8 322 -11 46 -7 73 -46 73 -103 0 -53 -23 -86 -68 -98 -15 -5 -184 -8 -377 -8 -384 0 -402 3 -441 60 -11 15 -31 41 -46 56 l-26 29 -152 0 c-149 0 -151 0 -177 -26 -22 -22 -24 -31 -19 -67 12 -71 47 -160 87 -213 45 -61 106 -102 219 -146 l85 -32 482 -4 482 -3 63 26 c35 14 86 35 113 46 82 32 133 89 184 206 28 63 31 82 31 167 0 107 -5 123 -62 221 -71 119 -107 148 -235 191 -119 38 -178 44 -573 53 -227 5 -379 13 -403 20 -45 14 -77 60 -77 109 0 42 41 86 96 101 61 17 646 15 687 -3 18 -7 55 -39 81 -70 l48 -56 164 0 c212 0 209 -2 180 161 -24 134 -66 186 -203 255 l-98 49 -495 2 c-272 1 -508 -2 -525 -7z"/> </g> 
</svg>
